name analog
datacolumns 19
datarows 50
range 0.1395 0.164
endheader
time	ground_force_vx	ground_force_vy	ground_force_vz	ground_force_px	ground_force_py	ground_force_pz	l_ground_force_vx	l_ground_force_vy	l_ground_force_vz	l_ground_force_px	l_ground_force_py	l_ground_force_pz	ground_torque_x	ground_torque_y	ground_torque_z	l_ground_torque_x	l_ground_torque_y	l_ground_torque_z
0.1395	-0.0	-0.0	-0.0	-7.115151882171631	4.326445579528809	-607.7080688476562	-0.0	-0.0	-0.0	-0.0	-0.0	-0.0	-0.0	-0.0	-0.0	-0.0	-0.0	-0.0
0.14	-0.0	-0.0	-0.0	-6.2447357177734375	4.5844407081604	-607.9379272460938	-0.0	-0.0	-0.0	-0.0	-0.0	-0.0	-0.0	-0.0	-0.0	-0.0	-0.0	-0.0
0.1405	-0.0	-0.0	-0.0	-5.719224452972412	4.615294933319092	-606.5257568359375	-0.0	-0.0	-0.0	-0.0	-0.0	-0.0	-0.0	-0.0	-0.0	-0.0	-0.0	-0.0
0.14100000000000001	-0.0	-0.0	-0.0	-5.074464797973633	4.149826049804688	-608.8822021484375	-0.0	-0.0	-0.0	-0.0	-0.0	-0.0	-0.0	-0.0	-0.0	-0.0	-0.0	-0.0
0.14150000000000001	-0.0	-0.0	-0.0	-4.738037109375	3.911866188049317	-609.6668701171875	-0.0	-0.0	-0.0	-0.0	-0.0	-0.0	-0.0	-0.0	-0.0	-0.0	-0.0	-0.0
0.14200000000000002	-0.0	-0.0	-0.0	-4.768009185791016	3.258464813232422	-613.2387084960938	-0.0	-0.0	-0.0	-0.0	-0.0	-0.0	-0.0	-0.0	-0.0	-0.0	-0.0	-0.0
0.14250000000000002	-0.0	-0.0	-0.0	-5.074975967407227	2.248288154602051	-614.1402587890625	-0.0	-0.0	-0.0	-0.0	-0.0	-0.0	-0.0	-0.0	-0.0	-0.0	-0.0	-0.0
0.14300000000000002	-0.0	-0.0	-0.0	-4.569873332977295	2.218200445175171	-617.1249389648438	-0.0	-0.0	-0.0	-0.0	-0.0	-0.0	-0.0	-0.0	-0.0	-0.0	-0.0	-0.0
0.14350000000000002	-0.0	-0.0	-0.0	-4.667247772216797	1.6043472290039062	-619.830810546875	-0.0	-0.0	-0.0	-0.0	-0.0	-0.0	-0.0	-0.0	-0.0	-0.0	-0.0	-0.0
0.14400000000000002	-0.0	-0.0	-0.0	-3.3517744541168213	1.0491888523101809	-620.9307250976562	-0.0	-0.0	-0.0	-0.0	-0.0	-0.0	-0.0	-0.0	-0.0	-0.0	-0.0	-0.0
0.1445	-0.0	-0.0	-0.0	-2.0549473762512207	0.6270156502723694	-622.2218627929688	-0.0	-0.0	-0.0	-0.0	-0.0	-0.0	-0.0	-0.0	-0.0	-0.0	-0.0	-0.0
0.145	-0.0	-0.0	-0.0	-1.4583885669708252	0.4456520080566406	-622.03173828125	-0.0	-0.0	-0.0	-0.0	-0.0	-0.0	-0.0	-0.0	-0.0	-0.0	-0.0	-0.0
0.1455	-0.0	-0.0	-0.0	-0.9813156127929688	0.791797399520874	-619.37109375	-0.0	-0.0	-0.0	-0.0	-0.0	-0.0	-0.0	-0.0	-0.0	-0.0	-0.0	-0.0
0.146	-0.0	-0.0	-0.0	0.3254369497299194	1.3264970779418943	-616.8810424804688	-0.0	-0.0	-0.0	-0.0	-0.0	-0.0	-0.0	-0.0	-0.0	-0.0	-0.0	-0.0
0.1465	-0.0	-0.0	-0.0	0.8710482716560364	1.9398308992385864	-612.8505859375	-0.0	-0.0	-0.0	-0.0	-0.0	-0.0	-0.0	-0.0	-0.0	-0.0	-0.0	-0.0
0.147	-0.0	-0.0	-0.0	0.934399962425232	2.5636532306671143	-609.6304931640625	-0.0	-0.0	-0.0	-0.0	-0.0	-0.0	-0.0	-0.0	-0.0	-0.0	-0.0	-0.0
0.1475	-0.0	-0.0	-0.0	1.5272351503372192	3.5585238933563232	-609.4462890625	-0.0	-0.0	-0.0	-0.0	-0.0	-0.0	-0.0	-0.0	-0.0	-0.0	-0.0	-0.0
0.148	-0.0	-0.0	-0.0	2.6977198123931885	3.397647857666016	-608.0064086914062	-0.0	-0.0	-0.0	-0.0	-0.0	-0.0	-0.0	-0.0	-0.0	-0.0	-0.0	-0.0
0.1485	-0.0	-0.0	-0.0	4.371315002441406	3.66510009765625	-608.1759033203125	-0.0	-0.0	-0.0	-0.0	-0.0	-0.0	-0.0	-0.0	-0.0	-0.0	-0.0	-0.0
0.149	-0.0	-0.0	-0.0	6.301408290863037	4.202405452728272	-606.3670043945312	-0.0	-0.0	-0.0	-0.0	-0.0	-0.0	-0.0	-0.0	-0.0	-0.0	-0.0	-0.0
0.1495	-0.0	-0.0	-0.0	8.477071762084961	3.521686792373657	-606.3668212890625	-0.0	-0.0	-0.0	-0.0	-0.0	-0.0	-0.0	-0.0	-0.0	-0.0	-0.0	-0.0
0.15	-0.0	-0.0	-0.0	10.504890441894531	2.7959375381469727	-607.5942993164062	-0.0	-0.0	-0.0	-0.0	-0.0	-0.0	-0.0	-0.0	-0.0	-0.0	-0.0	-0.0
0.1505	-0.0	-0.0	-0.0	12.022278785705566	2.128104448318481	-613.8304443359375	-0.0	-0.0	-0.0	-0.0	-0.0	-0.0	-0.0	-0.0	-0.0	-0.0	-0.0	-0.0
0.151	-0.0	-0.0	-0.0	10.414901733398438	1.214613914489746	-615.6365356445312	-0.0	-0.0	-0.0	-0.0	-0.0	-0.0	-0.0	-0.0	-0.0	-0.0	-0.0	-0.0
0.1515	-0.0	-0.0	-0.0	9.1887788772583	0.245180457830429	-619.742431640625	-0.0	-0.0	-0.0	-0.0	-0.0	-0.0	-0.0	-0.0	-0.0	-0.0	-0.0	-0.0
0.152	-0.0	-0.0	-0.0	8.00707721710205	0.1894743144512176	-624.288818359375	-0.0	-0.0	-0.0	-0.0	-0.0	-0.0	-0.0	-0.0	-0.0	-0.0	-0.0	-0.0
0.1525	-0.0	-0.0	-0.0	7.259859561920166	-0.0450369119644165	-627.3330078125	-0.0	-0.0	-0.0	-0.0	-0.0	-0.0	-0.0	-0.0	-0.0	-0.0	-0.0	-0.0
0.153	-0.0	-0.0	-0.0	6.789744377136231	-0.5234404802322388	-630.1629028320312	-0.0	-0.0	-0.0	-0.0	-0.0	-0.0	-0.0	-0.0	-0.0	-0.0	-0.0	-0.0
0.1535	-0.0	-0.0	-0.0	6.322534084320068	-0.3015965223312378	-633.4692993164062	-0.0	-0.0	-0.0	-0.0	-0.0	-0.0	-0.0	-0.0	-0.0	-0.0	-0.0	-0.0
0.154	-0.0	-0.0	-0.0	5.732462406158447	-1.046595811843872	-634.9265747070312	-0.0	-0.0	-0.0	-0.0	-0.0	-0.0	-0.0	-0.0	-0.0	-0.0	-0.0	-0.0
0.1545	-0.0	-0.0	-0.0	5.372600555419922	-1.2593553066253662	-637.5689086914062	-0.0	-0.0	-0.0	-0.0	-0.0	-0.0	-0.0	-0.0	-0.0	-0.0	-0.0	-0.0
0.155	-0.0	-0.0	-0.0	4.371315002441406	-1.2478256225585938	-637.53564453125	-0.0	-0.0	-0.0	-0.0	-0.0	-0.0	-0.0	-0.0	-0.0	-0.0	-0.0	-0.0
0.1555	-0.0	-0.0	-0.0	4.223762512207031	-1.0345909595489502	-640.285400390625	-0.0	-0.0	-0.0	-0.0	-0.0	-0.0	-0.0	-0.0	-0.0	-0.0	-0.0	-0.0
0.156	-0.0	-0.0	-0.0	3.972175121307373	-1.1047178506851196	-644.3394775390625	-0.0	-0.0	-0.0	-0.0	-0.0	-0.0	-0.0	-0.0	-0.0	-0.0	-0.0	-0.0
0.1565	-0.0	-0.0	-0.0	4.793820858001709	-1.7473194599151611	-647.5922241210938	-0.0	-0.0	-0.0	-0.0	-0.0	-0.0	-0.0	-0.0	-0.0	-0.0	-0.0	-0.0
0.157	-0.0	-0.0	-0.0	5.186065673828125	-1.6398839950561523	-646.3193359375	-0.0	-0.0	-0.0	-0.0	-0.0	-0.0	-0.0	-0.0	-0.0	-0.0	-0.0	-0.0
0.1575	-0.0	-0.0	-0.0	6.125823974609375	-1.6043472290039062	-646.5311279296875	-0.0	-0.0	-0.0	-0.0	-0.0	-0.0	-0.0	-0.0	-0.0	-0.0	-0.0	-0.0
0.158	-0.0	-0.0	-0.0	6.102268695831299	-1.5271906852722168	-645.82373046875	-0.0	-0.0	-0.0	-0.0	-0.0	-0.0	-0.0	-0.0	-0.0	-0.0	-0.0	-0.0
0.1585	-0.0	-0.0	-0.0	6.553398609161377	-1.32492196559906	-644.9066162109375	-0.0	-0.0	-0.0	-0.0	-0.0	-0.0	-0.0	-0.0	-0.0	-0.0	-0.0	-0.0
0.159	-0.0	-0.0	-0.0	6.698297500610352	-1.515216827392578	-645.918212890625	-0.0	-0.0	-0.0	-0.0	-0.0	-0.0	-0.0	-0.0	-0.0	-0.0	-0.0	-0.0
0.1595	-0.0	-0.0	-0.0	8.09381103515625	-1.7421247959136963	-646.9616088867188	-0.0	-0.0	-0.0	-0.0	-0.0	-0.0	-0.0	-0.0	-0.0	-0.0	-0.0	-0.0
0.16	-0.0	-0.0	-0.0	8.385787963867188	-2.049999237060547	-646.33349609375	-0.0	-0.0	-0.0	-0.0	-0.0	-0.0	-0.0	-0.0	-0.0	-0.0	-0.0	-0.0
0.1605	-0.0	-0.0	-0.0	8.665698051452637	-2.203725576400757	-643.8470458984375	-0.0	-0.0	-0.0	-0.0	-0.0	-0.0	-0.0	-0.0	-0.0	-0.0	-0.0	-0.0
0.161	-0.0	-0.0	-0.0	8.395465850830078	-2.126779794692993	-643.4449462890625	-0.0	-0.0	-0.0	-0.0	-0.0	-0.0	-0.0	-0.0	-0.0	-0.0	-0.0	-0.0
0.1615	-0.0	-0.0	-0.0	8.398195266723633	-1.5229036808013916	-639.8638305664062	-0.0	-0.0	-0.0	-0.0	-0.0	-0.0	-0.0	-0.0	-0.0	-0.0	-0.0	-0.0
0.162	-0.0	-0.0	-0.0	9.59726333618164	-1.8592592477798464	-635.2648315429688	-0.0	-0.0	-0.0	-0.0	-0.0	-0.0	-0.0	-0.0	-0.0	-0.0	-0.0	-0.0
0.1625	-0.0	-0.0	-0.0	9.661191940307615	-1.1712346076965332	-632.5452880859375	-0.0	-0.0	-0.0	-0.0	-0.0	-0.0	-0.0	-0.0	-0.0	-0.0	-0.0	-0.0
0.163	-0.0	-0.0	-0.0	9.914962768554688	-0.994056522846222	-631.1824340820312	-0.0	-0.0	-0.0	-0.0	-0.0	-0.0	-0.0	-0.0	-0.0	-0.0	-0.0	-0.0
0.1635	-0.0	-0.0	-0.0	11.457440376281738	-0.8908457159996033	-630.2738037109375	-0.0	-0.0	-0.0	-0.0	-0.0	-0.0	-0.0	-0.0	-0.0	-0.0	-0.0	-0.0
0.164	-0.0	-0.0	-0.0	10.692522048950195	-2.037271738052368	-630.1740112304688	-0.0	-0.0	-0.0	-0.0	-0.0	-0.0	-0.0	-0.0	-0.0	-0.0	-0.0	-0.0
